<svg width="141" height="17" viewBox="0 0 141 17" fill="none" xmlns="http://www.w3.org/2000/svg">
<path fill-rule="evenodd" clip-rule="evenodd" d="M30.2506 16.1334C30.2506 16.4844 30.0742 16.6598 29.7215 16.6598H23.5076C23.3575 16.6598 23.2355 16.6159 23.1417 16.5282C23.0479 16.4405 23.001 16.3165 23.001 16.1563C23.001 16.019 23.0329 15.9084 23.0967 15.8245C23.1605 15.7405 23.2599 15.6719 23.395 15.6185L23.8791 15.4697C23.9991 15.4316 24.093 15.3591 24.1605 15.2523C24.228 15.1455 24.2618 14.9929 24.2618 14.7946V8.18047C24.2618 8.07367 24.2355 7.98403 24.183 7.91156C24.1305 7.83909 24.0329 7.77233 23.8903 7.7113L23.2374 7.49389C23.0648 7.40997 22.941 7.32033 22.8659 7.22497C22.7909 7.12961 22.7534 7.01328 22.7534 6.87596C22.7534 6.73864 22.8003 6.62612 22.8941 6.53839L22.9309 6.50754C23.0208 6.44037 23.138 6.40679 23.2824 6.40679H24.2703L24.2625 6.33992C24.2414 6.20618 24.1886 6.0778 24.1042 5.95479C23.9916 5.79077 23.8641 5.60577 23.7215 5.3998C23.5789 5.19382 23.4513 4.94779 23.3387 4.66172C23.2262 4.37564 23.1699 4.02281 23.1699 3.60323C23.1699 2.60387 23.5076 1.80476 24.183 1.2059C24.8584 0.607045 25.8191 0.307617 27.0648 0.307617C27.8679 0.307617 28.5339 0.437306 29.063 0.696683C29.5921 0.95606 29.9879 1.30126 30.2506 1.73228C30.5133 2.16331 30.6446 2.63438 30.6446 3.14551C30.6446 3.74818 30.4889 4.20018 30.1774 4.50151C29.866 4.80285 29.4664 4.95352 28.9786 4.95352C28.4382 4.95352 28.0029 4.77806 27.6727 4.42713C27.3425 4.07621 27.1774 3.61086 27.1774 3.03108V2.01264C27.1774 1.74563 27.1249 1.54919 27.0198 1.42332C26.9147 1.29745 26.7534 1.23451 26.5358 1.23451C26.2581 1.23451 26.0479 1.32987 25.9054 1.52059C25.7628 1.7113 25.6915 1.98594 25.6915 2.34449C25.6915 2.71067 25.7759 3.05396 25.9448 3.37437C26.1136 3.69478 26.3219 3.9942 26.5695 4.27265C26.8172 4.5511 27.0648 4.81811 27.3125 5.07367C27.5602 5.32923 27.7684 5.58098 27.9373 5.82891L27.9854 5.90324C28.0766 6.05177 28.1374 6.19961 28.1678 6.34677L28.178 6.40679H29.8454C30.018 6.40679 30.1512 6.44303 30.245 6.5155C30.3388 6.58797 30.3857 6.7005 30.3857 6.85307C30.3857 7.08193 30.2881 7.26884 30.093 7.41378C29.8979 7.55873 29.5902 7.6312 29.1699 7.6312H28.3707V14.7603C28.3707 14.9739 28.4026 15.1379 28.4664 15.2523C28.5301 15.3667 28.6333 15.4354 28.7759 15.4583L29.744 15.607C29.9166 15.6299 30.0442 15.6852 30.1268 15.773C30.2093 15.8607 30.2506 15.9809 30.2506 16.1334ZM8.08531 16.3966C7.40988 16.7247 6.62188 16.8887 5.72131 16.8887C4.76821 16.8887 3.91454 16.6865 3.16031 16.2822C2.40609 15.8779 1.81133 15.2924 1.37606 14.5257C0.940782 13.759 0.723145 12.8264 0.723145 11.7278C0.723145 10.6674 0.950163 9.71957 1.4042 8.88422C1.85824 8.04888 2.49051 7.38899 3.30103 6.90457C4.11154 6.42014 5.05714 6.17793 6.13783 6.17793C7.06091 6.17793 7.83953 6.31525 8.47368 6.58988C9.10783 6.86452 9.59189 7.23642 9.92585 7.70558C10.2598 8.17475 10.4268 8.69923 10.4268 9.27901C10.4268 9.88931 10.2523 10.368 9.90334 10.7151C9.55437 11.0622 9.07969 11.2358 8.47931 11.2358C7.86392 11.2358 7.39675 11.0584 7.0778 10.7037C6.75885 10.3489 6.59937 9.86261 6.59937 9.24468V8.51232C6.59937 8.13851 6.53183 7.85625 6.39674 7.66553C6.26166 7.47481 6.07028 7.37945 5.82263 7.37945C5.57497 7.37945 5.3517 7.48054 5.15283 7.6827C4.95395 7.88486 4.8001 8.1881 4.69128 8.59242C4.58247 8.99675 4.52806 9.49643 4.52806 10.0915C4.52806 10.9459 4.65376 11.663 4.90517 12.2428C5.15658 12.8226 5.49992 13.2574 5.9352 13.5473C6.37047 13.8372 6.86579 13.9821 7.42114 13.9821C7.97649 13.9821 8.44179 13.9001 8.81703 13.7361C9.19226 13.5721 9.4812 13.2955 9.68382 12.9065C9.7964 12.7997 9.88458 12.731 9.94837 12.7005C10.0122 12.67 10.0741 12.6547 10.1341 12.6547C10.2092 12.6624 10.2711 12.6986 10.3199 12.7634C10.3686 12.8283 10.3893 12.9294 10.3818 13.0667C10.3217 13.8143 10.0928 14.4742 9.69508 15.0463C9.29733 15.6185 8.76074 16.0686 8.08531 16.3966ZM19.5282 16.1678C18.6839 16.6331 17.7027 16.8658 16.5844 16.8658C15.4963 16.8658 14.5413 16.6388 13.7195 16.1849C12.8977 15.731 12.258 15.1035 11.8002 14.3025C11.3424 13.5015 11.1135 12.5746 11.1135 11.5219C11.1135 10.5149 11.3536 9.60895 11.8339 8.80412C12.3142 7.99929 12.9784 7.36038 13.8265 6.8874C14.6745 6.41442 15.6501 6.17793 16.7533 6.17793C17.849 6.17793 18.8059 6.40679 19.6239 6.86452C20.4419 7.32224 21.0798 7.95542 21.5376 8.76407C21.9954 9.57272 22.2243 10.5072 22.2243 11.5676C22.2243 12.5746 21.986 13.4767 21.5094 14.2739C21.0329 15.0711 20.3725 15.7024 19.5282 16.1678ZM17.44 15.6757C17.2073 15.7215 16.9803 15.6185 16.7589 15.3667C16.5375 15.115 16.3274 14.6916 16.1285 14.0966C15.9297 13.5015 15.7402 12.7196 15.5601 11.7507C15.3874 10.7819 15.2899 9.98467 15.2674 9.35911C15.2449 8.73355 15.2899 8.26057 15.4025 7.94017C15.515 7.61976 15.6876 7.43286 15.9203 7.37945C16.1529 7.33368 16.3799 7.43667 16.6013 7.68842C16.8227 7.94017 17.0347 8.36356 17.2374 8.9586C17.44 9.55364 17.6314 10.3356 17.8115 11.3044C17.9916 12.2733 18.091 13.0724 18.1098 13.7018C18.1286 14.3311 18.0798 14.806 17.9634 15.1264C17.8471 15.4468 17.6726 15.6299 17.44 15.6757ZM37.579 16.6598C37.9317 16.6598 38.1081 16.4844 38.1081 16.1334C38.1081 15.9809 38.0668 15.8607 37.9843 15.773C37.9017 15.6852 37.7741 15.6299 37.6015 15.607L36.6334 15.4583C36.4908 15.4354 36.3876 15.3667 36.3238 15.2523C36.26 15.1379 36.2281 14.9739 36.2281 14.7603V7.6312H37.0274C37.4477 7.6312 37.7554 7.55873 37.9505 7.41378C38.1456 7.26884 38.2432 7.08193 38.2432 6.85307C38.2432 6.7005 38.1963 6.58797 38.1025 6.5155C38.0087 6.44303 37.8754 6.40679 37.7028 6.40679H36.0355L36.0252 6.34677C35.9948 6.19961 35.9341 6.05177 35.8429 5.90324L35.7948 5.82891C35.6259 5.58098 35.4176 5.32923 35.17 5.07367C34.9223 4.81811 34.6747 4.5511 34.427 4.27265C34.1794 3.9942 33.9711 3.69478 33.8022 3.37437C33.6334 3.05396 33.549 2.71067 33.549 2.34449C33.549 1.98594 33.6202 1.7113 33.7628 1.52059C33.9054 1.32987 34.1156 1.23451 34.3932 1.23451C34.6109 1.23451 34.7722 1.29745 34.8773 1.42332C34.9824 1.54919 35.0349 1.74563 35.0349 2.01264V3.03108C35.0349 3.61086 35.2 4.07621 35.5302 4.42713C35.8604 4.77806 36.2957 4.95352 36.836 4.95352C37.3238 4.95352 37.7235 4.80285 38.0349 4.50151C38.3464 4.20018 38.5021 3.74818 38.5021 3.14551C38.5021 2.63438 38.3708 2.16331 38.1081 1.73228C37.8454 1.30126 37.4496 0.95606 36.9205 0.696683C36.3914 0.437306 35.7253 0.307617 34.9223 0.307617C33.6765 0.307617 32.7159 0.607045 32.0405 1.2059C31.3651 1.80476 31.0274 2.60387 31.0274 3.60323C31.0274 4.02281 31.0836 4.37564 31.1962 4.66172C31.3088 4.94779 31.4364 5.19382 31.579 5.3998C31.7215 5.60577 31.8491 5.79077 31.9617 5.95479C32.0461 6.0778 32.0989 6.20618 32.12 6.33992L32.1277 6.40679H31.1399C30.9955 6.40679 30.8783 6.44037 30.7884 6.50754L30.7516 6.53839C30.6577 6.62612 30.6108 6.73864 30.6108 6.87596C30.6108 7.01328 30.6484 7.12961 30.7234 7.22497C30.7985 7.32033 30.9223 7.40997 31.0949 7.49389L31.7478 7.7113C31.8904 7.77233 31.988 7.83909 32.0405 7.91156C32.093 7.98403 32.1193 8.07367 32.1193 8.18047V14.7946C32.1193 14.9929 32.0855 15.1455 32.018 15.2523C31.9504 15.3591 31.8566 15.4316 31.7366 15.4697L31.2525 15.6185C31.1174 15.6719 31.018 15.7405 30.9542 15.8245C30.8904 15.9084 30.8585 16.019 30.8585 16.1563C30.8585 16.3165 30.9054 16.4405 30.9992 16.5282C31.093 16.6159 31.215 16.6598 31.3651 16.6598H37.579ZM46.3933 16.328C45.6654 16.7018 44.8248 16.8887 43.8717 16.8887C42.8211 16.8887 41.898 16.6693 41.1025 16.2307C40.307 15.792 39.686 15.1779 39.2394 14.3884C38.7929 13.5988 38.5696 12.6852 38.5696 11.6477C38.5696 10.5568 38.7854 9.60132 39.2169 8.78123C39.6484 7.96115 40.2732 7.32224 41.0912 6.86452C41.9093 6.40679 42.8924 6.17793 44.0406 6.17793C45.0162 6.17793 45.8568 6.37055 46.5622 6.75581C47.2676 7.14106 47.8099 7.66363 48.1889 8.32351C48.5678 8.9834 48.7573 9.71766 48.7573 10.5263C48.7573 10.8772 48.6635 11.1538 48.4759 11.3559L48.4312 11.4008C48.2462 11.573 47.991 11.6592 47.6654 11.6592H42.5193L42.5304 11.712C42.6669 12.3402 42.9001 12.8433 43.2301 13.2212C43.7929 13.8658 44.5434 14.1881 45.4815 14.1881C46.0819 14.1881 46.6129 14.0508 47.0744 13.7761C47.5359 13.5015 47.8455 13.1201 48.0031 12.6318C48.0932 12.5327 48.1738 12.4659 48.2451 12.4316C48.3164 12.3973 48.3783 12.3801 48.4309 12.3801C48.5059 12.3801 48.5697 12.4106 48.6223 12.4716C48.6748 12.5327 48.7011 12.6357 48.7011 12.7806C48.7011 13.5282 48.4984 14.2129 48.0932 14.8346C47.6879 15.4564 47.1213 15.9542 46.3933 16.328ZM42.4019 10.7419C42.3912 10.5663 42.3858 10.3839 42.3858 10.1945C42.3858 9.47736 42.4383 8.91283 42.5434 8.50088C42.6485 8.08893 42.7836 7.79713 42.9487 7.62548C43.1138 7.45383 43.2976 7.36801 43.5003 7.36801C43.7629 7.36801 44.0087 7.59306 44.2376 8.04315C44.4665 8.49325 44.5809 9.24087 44.5809 10.286C44.5809 10.6064 44.4384 10.7666 44.1532 10.7666H42.4033L42.4019 10.7419ZM57.1552 16.328C56.4272 16.7018 55.5867 16.8887 54.6336 16.8887C53.5829 16.8887 52.6598 16.6693 51.8643 16.2307C51.0688 15.792 50.4478 15.1779 50.0013 14.3884C49.5547 13.5988 49.3315 12.6852 49.3315 11.6477C49.3315 10.5568 49.5472 9.60132 49.9787 8.78123C50.4103 7.96115 51.035 7.32224 51.8531 6.86452C52.6711 6.40679 53.6542 6.17793 54.8024 6.17793C55.778 6.17793 56.6186 6.37055 57.324 6.75581C58.0295 7.14106 58.5717 7.66363 58.9507 8.32351C59.3297 8.9834 59.5192 9.71766 59.5192 10.5263C59.5192 10.8772 59.4254 11.1538 59.2377 11.3559L59.193 11.4008C59.0081 11.573 58.7528 11.6592 58.4272 11.6592H53.2812L53.2922 11.712C53.4287 12.3402 53.662 12.8433 53.9919 13.2212C54.5548 13.8658 55.3052 14.1881 56.2433 14.1881C56.8437 14.1881 57.3747 14.0508 57.8362 13.7761C58.2978 13.5015 58.6073 13.1201 58.7649 12.6318C58.855 12.5327 58.9357 12.4659 59.007 12.4316C59.0783 12.3973 59.1402 12.3801 59.1927 12.3801C59.2678 12.3801 59.3315 12.4106 59.3841 12.4716C59.4366 12.5327 59.4629 12.6357 59.4629 12.7806C59.4629 13.5282 59.2603 14.2129 58.855 14.8346C58.4497 15.4564 57.8831 15.9542 57.1552 16.328ZM53.1637 10.7419C53.153 10.5663 53.1476 10.3839 53.1476 10.1945C53.1476 9.47736 53.2002 8.91283 53.3052 8.50088C53.4103 8.08893 53.5454 7.79713 53.7105 7.62548C53.8756 7.45383 54.0595 7.36801 54.2621 7.36801C54.5247 7.36801 54.7705 7.59306 54.9994 8.04315C55.2283 8.49325 55.3428 9.24087 55.3428 10.286C55.3428 10.6064 55.2002 10.7666 54.915 10.7666H53.1651L53.1637 10.7419ZM66.7519 16.5168C66.6581 16.6121 66.5211 16.6598 66.341 16.6598H60.7124C60.5473 16.6598 60.4179 16.614 60.324 16.5225C60.2302 16.4309 60.1833 16.3051 60.1833 16.1449C60.1833 16.0228 60.2115 15.9217 60.2678 15.8416C60.324 15.7615 60.401 15.6871 60.4985 15.6185L60.7574 15.5155C60.855 15.4697 60.9226 15.3973 60.9601 15.2981C60.9976 15.1989 61.0164 15.0349 61.0164 14.806V8.99293C61.0164 8.80984 60.9957 8.67825 60.9544 8.59814C60.9132 8.51804 60.8438 8.45511 60.7462 8.40933L60.4535 8.375C60.3484 8.31397 60.2715 8.24913 60.2227 8.18047C60.174 8.11181 60.1496 8.02408 60.1496 7.91728C60.1496 7.79522 60.1871 7.68651 60.2621 7.59115C60.3372 7.49579 60.4648 7.41378 60.6449 7.34513L63.8419 6.41823C64.0295 6.34195 64.1871 6.28855 64.3147 6.25803C64.4423 6.22752 64.5511 6.21226 64.6412 6.21226C64.7687 6.21226 64.8644 6.25803 64.9282 6.34958L64.9487 6.38277C65.0013 6.47846 65.0377 6.63141 65.0577 6.84163L65.1434 8.61976L65.1629 8.55412C65.2009 8.43026 65.2428 8.31143 65.2884 8.19764C65.5624 7.51486 65.9245 7.00755 66.3748 6.6757C66.825 6.34385 67.3166 6.17793 67.8494 6.17793C68.4949 6.17793 68.9902 6.39535 69.3354 6.83019C69.6806 7.26502 69.8532 7.92491 69.8532 8.80984C69.8532 9.68715 69.6731 10.3318 69.3129 10.7437C68.9526 11.1557 68.4874 11.3617 67.917 11.3617C67.3616 11.3617 66.9508 11.2205 66.6843 10.9383C66.4179 10.656 66.2772 10.2555 66.2622 9.73673L66.2509 9.27901C66.2434 9.10355 66.2097 8.96623 66.1496 8.86706C66.0896 8.76788 65.992 8.7183 65.8569 8.7183C65.7218 8.7183 65.6036 8.78886 65.5023 8.92999C65.401 9.07113 65.3241 9.28664 65.2716 9.57653C65.219 9.86642 65.1928 10.2364 65.1928 10.6865V14.7145C65.1928 14.9281 65.2265 15.0978 65.2941 15.2237C65.3616 15.3496 65.4667 15.4278 65.6093 15.4583L66.4536 15.6299C66.6112 15.6528 66.7237 15.7119 66.7913 15.8073C66.8588 15.9027 66.8926 16.0152 66.8926 16.1449C66.8926 16.2974 66.8457 16.4214 66.7519 16.5168ZM75.752 16.8658C76.8702 16.8658 77.8514 16.6331 78.6957 16.1678C79.54 15.7024 80.2004 15.0711 80.677 14.2739C81.1535 13.4767 81.3918 12.5746 81.3918 11.5676C81.3918 10.5072 81.1629 9.57272 80.7051 8.76407C80.2473 7.95542 79.6094 7.32224 78.7914 6.86452C77.9734 6.40679 77.0165 6.17793 75.9208 6.17793C74.8176 6.17793 73.842 6.41442 72.994 6.8874C72.1459 7.36038 71.4818 7.99929 71.0014 8.80412C70.5211 9.60895 70.281 10.5149 70.281 11.5219C70.281 12.5746 70.5099 13.5015 70.9677 14.3025C71.4255 15.1035 72.0652 15.731 72.887 16.1849C73.7088 16.6388 74.6638 16.8658 75.752 16.8658ZM75.9264 15.3667C76.1478 15.6185 76.3749 15.7215 76.6075 15.6757C76.8401 15.6299 77.0146 15.4468 77.131 15.1264C77.2473 14.806 77.2961 14.3311 77.2773 13.7018C77.2585 13.0724 77.1591 12.2733 76.979 11.3044C76.7989 10.3356 76.6075 9.55364 76.4049 8.9586C76.2022 8.36356 75.9902 7.94017 75.7688 7.68842C75.5475 7.43667 75.3204 7.33368 75.0878 7.37945C74.8551 7.43286 74.6825 7.61976 74.57 7.94017C74.4574 8.26057 74.4124 8.73355 74.4349 9.35911C74.4574 9.98467 74.5549 10.7819 74.7276 11.7507C74.9077 12.7196 75.0972 13.5015 75.296 14.0966C75.4949 14.6916 75.7051 15.115 75.9264 15.3667ZM90.3187 16.8887C90.9491 16.8887 91.4669 16.7723 91.8722 16.5397C92.2774 16.307 92.5795 16.0304 92.7784 15.71C92.9772 15.3896 93.0767 15.0959 93.0767 14.8289C93.0767 14.7145 93.0523 14.6191 93.0035 14.5428C92.9547 14.4665 92.8891 14.4284 92.8065 14.4284C92.769 14.4284 92.7352 14.436 92.7052 14.4513C92.6752 14.4665 92.6489 14.4894 92.6264 14.52C92.5889 14.6573 92.5307 14.7526 92.4519 14.806C92.3731 14.8594 92.2887 14.8861 92.1986 14.8861C92.0711 14.8861 91.9754 14.8423 91.9116 14.7545C91.8478 14.6668 91.8159 14.5505 91.8159 14.4055V9.34767C91.8159 8.34068 91.4763 7.56064 90.7971 7.00755C90.1179 6.45447 89.0541 6.17793 87.6057 6.17793C86.48 6.17793 85.54 6.31906 84.7858 6.60132C84.0316 6.88359 83.465 7.24404 83.086 7.6827C82.707 8.12135 82.5175 8.56954 82.5175 9.02726C82.5175 9.5155 82.6582 9.8874 82.9396 10.143C83.2211 10.3985 83.6282 10.5263 84.161 10.5263C84.8139 10.5263 85.328 10.3489 85.7033 9.9942C86.0785 9.63947 86.2661 9.17984 86.2661 8.61531V7.74563C86.2661 7.53203 86.3318 7.3661 86.4631 7.24786C86.5945 7.12961 86.7577 7.07049 86.9528 7.07049C87.1629 7.07049 87.3299 7.14869 87.4538 7.30507C87.5776 7.46146 87.6395 7.67316 87.6395 7.94017L87.6392 11.2758L87.5794 11.2628C87.3983 11.2277 87.1886 11.2077 86.9504 11.2027L86.829 11.2015C85.2155 11.2015 84.0128 11.4761 83.2211 12.0254C82.4293 12.5746 82.0334 13.3413 82.0334 14.3254C82.0334 15.073 82.3055 15.6871 82.8496 16.1678C83.3937 16.6484 84.116 16.8887 85.0166 16.8887C85.692 16.8887 86.3224 16.7494 86.9078 16.471C87.3468 16.2622 87.7035 15.9879 87.9779 15.6482L87.9935 15.6283L88.01 15.6795C88.0965 15.9269 88.255 16.1485 88.4856 16.3444L88.557 16.4023C88.9735 16.7266 89.5607 16.8887 90.3187 16.8887ZM86.4406 14.7316C86.6245 14.9796 86.8665 15.1035 87.1667 15.1035L87.2311 15.1013C87.3591 15.0924 87.4829 15.0566 87.6025 14.994L87.6392 14.9732V12.0368L87.5832 12.0196C87.4556 11.9853 87.3055 11.9681 87.1329 11.9681C86.8402 11.9681 86.6057 12.1055 86.4293 12.3801C86.253 12.6547 86.1648 13.059 86.1648 13.5931C86.1648 14.1042 86.2567 14.4837 86.4406 14.7316ZM98.255 16.923C99.5908 16.923 100.615 16.614 101.328 15.9961C102.041 15.3782 102.398 14.5352 102.398 13.4672C102.398 12.8187 102.278 12.2504 102.037 11.7622C101.797 11.2739 101.377 10.841 100.777 10.4634C100.176 10.0857 99.3319 9.7291 98.2437 9.39344C97.8385 9.26375 97.5251 9.13216 97.3037 8.99865C97.0824 8.86515 96.9304 8.72211 96.8478 8.56954C96.7653 8.41696 96.724 8.25294 96.724 8.07748C96.724 7.81811 96.8178 7.60832 97.0054 7.44811C97.193 7.28791 97.4707 7.20781 97.8385 7.20781C98.3488 7.20781 98.831 7.37945 99.285 7.72275C99.739 8.06604 100.24 8.65345 100.788 9.48499C100.93 9.66045 101.073 9.78823 101.216 9.86833C101.358 9.94843 101.493 9.97322 101.621 9.94271C101.778 9.89694 101.876 9.79204 101.914 9.62802C101.951 9.46401 101.944 9.22942 101.891 8.92427L101.598 6.81874C101.568 6.59751 101.512 6.44112 101.429 6.34958C101.347 6.25803 101.238 6.21226 101.103 6.21226C100.983 6.21226 100.833 6.25422 100.653 6.33813C100.473 6.42205 100.294 6.50787 100.118 6.5956C99.9417 6.68333 99.8085 6.7272 99.7184 6.7272C99.6358 6.7272 99.5139 6.68143 99.3525 6.58988C99.1912 6.49834 98.9642 6.40679 98.6715 6.31525C98.3788 6.2237 97.9998 6.17793 97.5345 6.17793C96.7615 6.17793 96.0655 6.31906 95.4463 6.60132C94.8272 6.88359 94.3394 7.286 93.9829 7.80857C93.6264 8.33114 93.4482 8.95479 93.4482 9.67952C93.4482 10.3203 93.5814 10.881 93.8478 11.3617C94.1142 11.8423 94.5214 12.2542 95.0692 12.5975C95.6171 12.9408 96.3075 13.2193 97.1405 13.4329C97.6809 13.5778 98.0955 13.7247 98.3844 13.8734C98.6734 14.0222 98.8722 14.1843 98.9811 14.3597C99.0899 14.5352 99.1443 14.7297 99.1443 14.9433C99.1443 15.2256 99.0505 15.4583 98.8629 15.6414C98.6752 15.8245 98.3901 15.916 98.0073 15.916C97.6471 15.916 97.3037 15.8378 96.9773 15.6814C96.6508 15.525 96.315 15.2561 95.9698 14.8747C95.6245 14.4932 95.2381 13.9707 94.8103 13.307C94.6827 13.1315 94.5382 13.0095 94.3769 12.9408C94.2155 12.8721 94.0523 12.876 93.8872 12.9522C93.7296 13.0133 93.6283 13.143 93.5833 13.3413C93.5382 13.5397 93.5495 13.7838 93.617 14.0737L93.966 16.3508C94.0185 16.5797 94.0936 16.7323 94.1911 16.8086C94.2887 16.8849 94.3938 16.923 94.5063 16.923C94.6339 16.923 94.7896 16.881 94.9735 16.7971L95.5251 16.5454C95.709 16.4615 95.8572 16.4195 95.9698 16.4195C96.0823 16.4195 96.2306 16.4615 96.4144 16.5454C96.5983 16.6293 96.8384 16.7132 97.1349 16.7971C97.4313 16.881 97.8047 16.923 98.255 16.923ZM108.927 16.4939C108.431 16.7571 107.846 16.8887 107.171 16.8887C106.03 16.8887 105.172 16.6102 104.598 16.0533C104.024 15.4964 103.737 14.6191 103.737 13.4214V8.24913C103.737 8.08893 103.722 7.96687 103.692 7.88295C103.662 7.79904 103.587 7.73038 103.467 7.67698L102.938 7.50533C102.81 7.4443 102.728 7.36992 102.69 7.28219C102.653 7.19446 102.634 7.08575 102.634 6.95606C102.634 6.79586 102.69 6.66426 102.803 6.56127C102.915 6.45828 103.054 6.40679 103.219 6.40679H103.771C103.839 6.40679 103.91 6.38009 103.985 6.32669C104.06 6.27329 104.161 6.16649 104.289 6.00628L106.371 4.25549C106.521 4.0724 106.672 3.93317 106.822 3.83781C106.972 3.74246 107.122 3.69478 107.272 3.69478C107.445 3.69478 107.58 3.74818 107.677 3.85498L107.708 3.89284C107.785 3.99983 107.824 4.15504 107.824 4.35848L107.823 6.40679H110.176C110.341 6.40679 110.469 6.44303 110.559 6.5155C110.649 6.58797 110.694 6.7005 110.694 6.85307C110.694 7.06668 110.6 7.24977 110.413 7.40234L110.371 7.43387C110.182 7.56542 109.895 7.6312 109.512 7.6312H107.823L107.824 12.8493C107.824 13.4214 107.919 13.8448 108.111 14.1194C108.302 14.3941 108.582 14.5314 108.949 14.5314C109.107 14.5314 109.253 14.4971 109.388 14.4284C109.523 14.3597 109.645 14.2701 109.754 14.1595C109.863 14.0489 109.966 13.9249 110.064 13.7876C110.161 13.6503 110.255 13.513 110.345 13.3756C110.42 13.3451 110.486 13.3585 110.542 13.4157C110.598 13.4729 110.623 13.5892 110.615 13.7647C110.563 14.3826 110.392 14.9262 110.103 15.3953C109.814 15.8645 109.422 16.2307 108.927 16.4939ZM116.3 16.8887C117.253 16.8887 118.094 16.7018 118.822 16.328C119.55 15.9542 120.116 15.4564 120.522 14.8346C120.927 14.2129 121.129 13.5282 121.129 12.7806C121.129 12.6357 121.103 12.5327 121.051 12.4716C120.998 12.4106 120.934 12.3801 120.859 12.3801C120.807 12.3801 120.745 12.3973 120.674 12.4316C120.602 12.4659 120.522 12.5327 120.432 12.6318C120.274 13.1201 119.964 13.5015 119.503 13.7761C119.041 14.0508 118.51 14.1881 117.91 14.1881C116.972 14.1881 116.221 13.8658 115.659 13.2212C115.329 12.8433 115.095 12.3402 114.959 11.712L114.948 11.6592H120.094C120.419 11.6592 120.675 11.573 120.86 11.4008L120.904 11.3559C121.092 11.1538 121.186 10.8772 121.186 10.5263C121.186 9.71766 120.996 8.9834 120.617 8.32351C120.238 7.66363 119.696 7.14106 118.991 6.75581C118.285 6.37055 117.445 6.17793 116.469 6.17793C115.321 6.17793 114.338 6.40679 113.52 6.86452C112.702 7.32224 112.077 7.96115 111.645 8.78123C111.214 9.60132 110.998 10.5568 110.998 11.6477C110.998 12.6852 111.221 13.5988 111.668 14.3884C112.114 15.1779 112.735 15.792 113.531 16.2307C114.326 16.6693 115.249 16.8887 116.3 16.8887ZM114.814 10.1945C114.814 10.3839 114.82 10.5663 114.83 10.7419L114.832 10.7666H116.582C116.867 10.7666 117.009 10.6064 117.009 10.286C117.009 9.24087 116.895 8.49325 116.666 8.04315C116.437 7.59306 116.191 7.36801 115.929 7.36801C115.726 7.36801 115.542 7.45383 115.377 7.62548C115.212 7.79713 115.077 8.08893 114.972 8.50088C114.867 8.91283 114.814 9.47736 114.814 10.1945ZM128.008 16.6598C128.188 16.6598 128.325 16.6121 128.418 16.5168C128.512 16.4214 128.559 16.2974 128.559 16.1449C128.559 16.0152 128.525 15.9027 128.458 15.8073C128.39 15.7119 128.278 15.6528 128.12 15.6299L127.276 15.4583C127.133 15.4278 127.028 15.3496 126.961 15.2237C126.893 15.0978 126.859 14.9281 126.859 14.7145V10.6865C126.859 10.2364 126.886 9.86642 126.938 9.57653C126.991 9.28664 127.068 9.07113 127.169 8.92999C127.27 8.78886 127.388 8.7183 127.524 8.7183C127.659 8.7183 127.756 8.76788 127.816 8.86706C127.876 8.96623 127.91 9.10355 127.918 9.27901L127.929 9.73673C127.944 10.2555 128.085 10.656 128.351 10.9383C128.617 11.2205 129.028 11.3617 129.584 11.3617C130.154 11.3617 130.619 11.1557 130.979 10.7437C131.34 10.3318 131.52 9.68715 131.52 8.80984C131.52 7.92491 131.347 7.26502 131.002 6.83019C130.657 6.39535 130.161 6.17793 129.516 6.17793C128.983 6.17793 128.492 6.34385 128.041 6.6757C127.591 7.00755 127.229 7.51486 126.955 8.19764C126.909 8.31143 126.868 8.43026 126.829 8.55412L126.81 8.62008L126.724 6.84163C126.704 6.63141 126.668 6.47846 126.615 6.38277L126.595 6.34958C126.531 6.25803 126.435 6.21226 126.308 6.21226C126.218 6.21226 126.109 6.22752 125.981 6.25803C125.854 6.28855 125.696 6.34195 125.508 6.41823L122.311 7.34513C122.131 7.41378 122.004 7.49579 121.929 7.59115C121.854 7.68651 121.816 7.79522 121.816 7.91728C121.816 8.02408 121.841 8.11181 121.889 8.18047C121.938 8.24913 122.015 8.31397 122.12 8.375L122.413 8.40933C122.51 8.45511 122.58 8.51804 122.621 8.59814C122.662 8.67825 122.683 8.80984 122.683 8.99293V14.806C122.683 15.0349 122.664 15.1989 122.627 15.2981C122.589 15.3973 122.522 15.4697 122.424 15.5155L122.165 15.6185C122.068 15.6871 121.991 15.7615 121.934 15.8416C121.878 15.9217 121.85 16.0228 121.85 16.1449C121.85 16.3051 121.897 16.4309 121.991 16.5225C122.084 16.614 122.214 16.6598 122.379 16.6598H128.008ZM139.861 15.9961C139.148 16.614 138.124 16.923 136.788 16.923C136.338 16.923 135.965 16.881 135.668 16.7971C135.372 16.7132 135.131 16.6293 134.948 16.5454C134.764 16.4615 134.616 16.4195 134.503 16.4195C134.39 16.4195 134.242 16.4615 134.058 16.5454L133.507 16.7971C133.323 16.881 133.167 16.923 133.04 16.923C132.927 16.923 132.822 16.8849 132.724 16.8086C132.627 16.7323 132.552 16.5797 132.499 16.3508L132.15 14.0737C132.083 13.7838 132.071 13.5397 132.116 13.3413C132.161 13.143 132.263 13.0133 132.42 12.9522C132.585 12.876 132.749 12.8721 132.91 12.9408C133.071 13.0095 133.216 13.1315 133.343 13.307C133.771 13.9707 134.158 14.4932 134.503 14.8747C134.848 15.2561 135.184 15.525 135.51 15.6814C135.837 15.8378 136.18 15.916 136.54 15.916C136.923 15.916 137.208 15.8245 137.396 15.6414C137.584 15.4583 137.677 15.2256 137.677 14.9433C137.677 14.7297 137.623 14.5352 137.514 14.3597C137.405 14.1843 137.207 14.0222 136.918 13.8734C136.629 13.7247 136.214 13.5778 135.674 13.4329C134.841 13.2193 134.15 12.9408 133.602 12.5975C133.055 12.2542 132.647 11.8423 132.381 11.3617C132.115 10.881 131.981 10.3203 131.981 9.67952C131.981 8.95479 132.16 8.33114 132.516 7.80857C132.873 7.286 133.36 6.88359 133.979 6.60132C134.599 6.31906 135.295 6.17793 136.068 6.17793C136.533 6.17793 136.912 6.2237 137.205 6.31525C137.497 6.40679 137.724 6.49834 137.886 6.58988C138.047 6.68143 138.169 6.7272 138.252 6.7272C138.342 6.7272 138.475 6.68333 138.651 6.5956C138.828 6.50787 139.006 6.42205 139.186 6.33813C139.366 6.25422 139.516 6.21226 139.636 6.21226C139.771 6.21226 139.88 6.25803 139.963 6.34958C140.045 6.44112 140.102 6.59751 140.132 6.81874L140.424 8.92427C140.477 9.22942 140.484 9.46401 140.447 9.62802C140.409 9.79204 140.312 9.89694 140.154 9.94271C140.026 9.97322 139.891 9.94843 139.749 9.86833C139.606 9.78823 139.464 9.66045 139.321 9.48499C138.773 8.65345 138.272 8.06604 137.818 7.72275C137.364 7.37945 136.882 7.20781 136.372 7.20781C136.004 7.20781 135.726 7.28791 135.539 7.44811C135.351 7.60832 135.257 7.81811 135.257 8.07748C135.257 8.25294 135.298 8.41696 135.381 8.56954C135.464 8.72211 135.616 8.86515 135.837 8.99865C136.058 9.13216 136.372 9.26375 136.777 9.39344C137.865 9.7291 138.709 10.0857 139.31 10.4634C139.91 10.841 140.33 11.2739 140.571 11.7622C140.811 12.2504 140.931 12.8187 140.931 13.4672C140.931 14.5352 140.574 15.3782 139.861 15.9961Z" fill="#333D4B"/>
</svg>
